<mxfile host="app.diagrams.net" modified="2024-03-25T14:38:09.253Z" agent="Mozilla/5.0 (Windows NT 10.0; Win64; x64) AppleWebKit/537.36 (KHTML, like Gecko) Chrome/122.0.0.0 Safari/537.36" version="24.1.0" etag="rh0nZC7EzwrJpX7Co51k" type="github">
  <diagram name="Страница — 1" id="2tZZIuvcpwBNT1NPTr5Z">
    <mxGraphModel>
      <root>
        <mxCell id="0" />
        <mxCell id="1" parent="0" />
      </root>
    </mxGraphModel>
  </diagram>
</mxfile>
